<svg width="24" height="26" viewBox="0 0 24 26" fill="none" xmlns="http://www.w3.org/2000/svg">
<path fill-rule="evenodd" clip-rule="evenodd" d="M16.0361 0.0392678C15.9871 0.0265513 15.938 0.0138329 15.8891 0.000678526C11.4206 0.000678526 6.95214 0.000678381 2.48364 0C2.47459 0.00432068 2.46566 0.00920299 2.45674 0.0140791C2.43626 0.0252805 2.41584 0.0364493 2.39409 0.040703C0.965424 0.312055 0.00754968 1.42257 0.00551453 2.86819C-0.00194766 8.52114 -0.00194751 14.1748 0.00619306 19.8277C0.00754982 20.9016 0.487844 21.7353 1.41926 22.278C2.8662 23.1211 4.31736 23.9568 5.76841 24.7924C6.24401 25.0663 6.71958 25.3402 7.195 25.6143C7.5966 25.8463 8.03076 25.9772 8.49545 25.9976C9.88749 26.0586 11.4769 24.9536 11.4342 23.0792C11.4282 22.8102 11.4297 22.5413 11.4313 22.2614C11.4321 22.1298 11.4328 21.9957 11.4328 21.8581H11.7564C12.1504 21.8575 12.5444 21.8598 12.9383 21.862C13.8226 21.8671 14.7068 21.8722 15.59 21.8445C17.2018 21.7943 18.3503 20.5861 18.3673 18.9736C18.3781 17.9662 18.372 16.9588 18.3659 15.9521C18.3645 15.8117 18.3381 15.6631 18.2886 15.5322C18.1319 15.1191 17.7092 14.8952 17.2642 14.9725C16.826 15.0485 16.5071 15.4189 16.5037 15.8877C16.4991 16.5668 16.4998 17.2459 16.5006 17.9251C16.5009 18.2445 16.5012 18.564 16.501 18.8834C16.5003 19.6134 16.1198 20 15.3953 20.0007C14.1692 20.0021 12.9432 20.0014 11.7171 20.0007H11.7137C11.6522 20.0007 11.5906 19.9968 11.5244 19.9926C11.495 19.9907 11.4646 19.9888 11.4328 19.9871V19.629C11.4328 18.5377 11.4323 17.4464 11.4317 16.355C11.4302 13.4775 11.4287 10.5998 11.4376 7.72201C11.441 6.50499 10.9376 5.61971 9.88274 5.01866C8.63979 4.31022 7.40211 3.59262 6.1644 2.87501C5.68358 2.59623 5.20276 2.31746 4.72162 2.03921C4.67286 2.01101 4.62478 1.98112 4.55909 1.9403C4.53156 1.92318 4.50093 1.90415 4.46587 1.88251C4.51296 1.87986 4.55239 1.87722 4.58688 1.87491C4.64977 1.8707 4.69621 1.86758 4.74265 1.86758C8.29737 1.8669 11.8514 1.8669 15.4061 1.86758C16.1259 1.86758 16.5003 2.24273 16.501 2.96181C16.5013 3.36678 16.5011 3.77167 16.5009 4.17653C16.5005 4.90561 16.5002 5.63461 16.5024 6.36389C16.5037 6.93237 16.9135 7.35772 17.4413 7.35161C17.9609 7.34619 18.3639 6.9317 18.3666 6.37407C18.367 6.28351 18.3675 6.19295 18.368 6.10239C18.3738 5.01664 18.3796 3.93088 18.3645 2.84513C18.3476 1.56435 17.5505 0.495897 16.3728 0.132284C16.2617 0.0977667 16.1489 0.0685224 16.0361 0.0392678ZM19.8072 9.73888C19.892 9.82327 19.9794 9.9102 20.0701 10.0006H19.7126H13.4179C13.398 10.0006 13.3781 10.0005 13.3581 10.0004C13.2851 10.0001 13.2121 9.99971 13.1391 10.004C12.6581 10.0318 12.285 10.4164 12.2714 10.8967C12.2551 11.4706 12.6656 11.8594 13.3019 11.86C14.825 11.8615 16.3481 11.8612 17.8712 11.8609C18.4802 11.8608 19.0893 11.8607 19.6983 11.8607H19.9962C19.9899 11.8827 19.9863 11.899 19.9835 11.9112C19.9795 11.9294 19.9774 11.9385 19.9717 11.9441C19.7582 12.1607 19.5439 12.3769 19.3297 12.593C19.2581 12.6653 19.1865 12.7375 19.1149 12.8098C18.6828 13.246 18.6543 13.8178 19.0451 14.2052C19.4304 14.5864 19.9948 14.5607 20.4208 14.136C21.2539 13.3057 22.0856 12.4746 22.9152 11.6409C23.3602 11.1945 23.3582 10.6627 22.9091 10.2109C22.0795 9.37648 21.2478 8.54478 20.414 7.7158C19.9887 7.29317 19.4202 7.27485 19.0369 7.66221C18.6577 8.04549 18.6855 8.61465 19.1061 9.03864C19.3317 9.26578 19.5585 9.49141 19.8072 9.73888Z" fill="#74848B"/>
</svg>
