<svg width="22" height="26" viewBox="0 0 22 26" fill="none" xmlns="http://www.w3.org/2000/svg">
<path fill-rule="evenodd" clip-rule="evenodd" d="M8.31194 21.6705C9.15133 21.6704 9.99075 21.6703 10.8302 21.6703C12.6416 21.6703 14.453 21.6703 16.2644 21.6716C16.6029 21.6716 16.9415 21.6721 17.28 21.6726C18.0839 21.6737 18.8879 21.6749 19.6918 21.6696C20.9035 21.6615 21.7447 20.7592 21.6497 19.5767C21.6029 18.9905 21.2732 18.5685 20.8492 18.1866C19.4082 16.8894 18.5765 15.2707 18.4544 13.3338C18.4079 12.5977 18.4102 11.8585 18.4124 11.1192C18.4137 10.7153 18.4149 10.3113 18.4082 9.90776L18.408 9.89167C18.4013 9.47494 18.3945 9.05377 18.3309 8.64318C17.8255 5.37046 15.3716 2.87046 12.105 2.28837C11.9578 2.26192 11.9049 2.21036 11.9082 2.0611C11.9164 1.72257 11.9177 1.38336 11.9062 1.0455C11.8852 0.447808 11.4082 -0.00537916 10.8194 4.82375e-05C10.242 0.00547564 9.77664 0.457307 9.75628 1.04414C9.74543 1.36572 9.74204 1.68797 9.75628 2.00886C9.7651 2.20018 9.70404 2.26327 9.51001 2.29584C6.00867 2.882 3.32685 5.9824 3.25969 9.52513C3.24612 10.2244 3.24823 10.9239 3.25034 11.6235C3.2514 11.9733 3.25245 12.3232 3.25155 12.673C3.24815 14.0109 2.93472 15.2673 2.25698 16.4274C1.84789 17.1276 1.33839 17.7442 0.723737 18.2734C0.135542 18.7802 -0.114796 19.4152 0.0493823 20.1784C0.248161 21.1031 1.00868 21.6689 2.02021 21.6696C4.11763 21.6711 6.21471 21.6708 8.31194 21.6705ZM9.90815 25.8559C10.0644 25.9018 10.2207 25.9478 10.3741 25.9993H10.3767C10.6805 25.9993 10.9842 25.9993 11.288 26C11.3003 25.9953 11.3126 25.9897 11.3247 25.9842C11.3507 25.9725 11.3765 25.9608 11.4033 25.9566C12.6279 25.768 13.5743 25.1466 14.252 24.116C14.5214 23.7056 14.7106 23.2592 14.7988 22.7687H6.86805C6.86994 22.7871 6.87109 22.8033 6.87212 22.8179C6.87407 22.8453 6.87563 22.8673 6.88094 22.8881C7.18691 24.0414 7.83888 24.943 8.90265 25.4905C9.21702 25.6526 9.5626 25.7542 9.90815 25.8559Z" fill="#74848B"/>
<circle cx="17.5" cy="8.5" r="4" fill="#EF553B" stroke="#F3FDFF"/>
</svg>
